<svg xmlns="http://www.w3.org/2000/svg" version="1.1" width="329" height="63" viewBox="0 0 329 63"><path fill="#fff" d="M81.77 49.72 98.99 8.54h3.42l17.11 41.18h-4.29l-5.33-12.88H91.39l-5.27 12.88zm10.49-16.07h16.71l-8.3-20.35zm63.86 16.07-26.62-33.7v33.7h-4.06V8.54h3.36l27.03 34.34V8.6h4.06v41.12zm43.33-41.18v3.6h-14.68v37.58h-4.06V12.14h-14.67v-3.6zm10.21 41.18h-4.06V8.54h4.06zm14.38 0h-4.06V8.54h27.03v3.6h-22.97v15.13h19.37v3.37h-19.37zm34.16 0h-4.06V8.54h17.4q2.67 0 4.87 1.1 2.21 1.1 3.86 2.99 1.65 1.88 2.55 4.18.9 2.29.9 4.66 0 2.96-1.13 5.57-1.13 2.61-3.19 4.41-2.06 1.8-4.84 2.38l10.09 15.89h-4.58l-9.69-15.2H258.2zm0-37.58v18.79h13.46q2.43 0 4.23-1.34 1.8-1.33 2.79-3.5.98-2.18.98-4.62 0-2.49-1.13-4.61-1.13-2.11-3.01-3.42-1.89-1.3-4.21-1.3zm29.35 37.58 17.23-41.18h3.42l17.11 41.18h-4.29l-5.34-12.88h-18.5l-5.28 12.88zm10.5-16.07h16.7l-8.29-20.35zM15.118 15.86a1.177 1.177 0 0 0 .449 2.093c.376.073.716.067 1.76-.74a9.391 9.391 0 0 0 1.796-1.802l.279-.365c2.385-3.173 7.967-10.6 16.032-10.194 6.65.486 11.365 5.504 13.634 14.52.073.304.122.492.176.638.346 1.475.929 3.313 1.76 3.914a1.153 1.153 0 0 0 1.639-.261c.37-.51.273-1.214-.207-1.602-.23-.297-.667-1.553-.928-2.67l-.06-.2-.104-.395c-.364-1.426-1.317-5.218-3.629-8.798-2.991-4.606-7.069-7.13-12.124-7.494h-.024c-9.314-.48-15.43 7.658-18.04 11.129l-.273.364a7.282 7.282 0 0 1-1.85 1.699q-.146.06-.286.164"/><path fill="#fff" d="M44.979 22.455c.886-2.22.91-4.508.06-6.28-.758-1.578-2.172-2.73-4.083-3.313-2.81-.862-6.214.698-9.333 4.272-.036.042-4.478 4.715-9.138 7.567-.03.018-3.447 2.063-7.009 3.034a1.176 1.176 0 0 0 .619 2.27 33.98 33.98 0 0 0 7.61-3.296c5.06-3.095 9.647-7.98 9.684-8.022 1.893-2.172 4.69-4.247 6.875-3.58q1.942.595 2.652 2.081c.57 1.184.521 2.786-.122 4.388C41.6 24.567 37.88 28.178 32.31 31.74c-2.792 1.79-9.824 6.177-14.788 8.3a1.177 1.177 0 0 0 .922 2.16c5.128-2.19 12.288-6.662 15.134-8.482 4.223-2.707 9.636-6.857 11.402-11.269m-18.91-8.762c-.534.583-1.014 1.214-1.53 1.82a24.272 24.272 0 0 1-2.184 2.215 12.743 12.743 0 0 1-2.366 1.76c-.99.57-1.997 1.153-3.022 1.645a6.386 6.386 0 0 1-1.05.406 1.19 1.19 0 0 0-.825 1.444c.17.607.831 1.002 1.444.82a16.384 16.384 0 0 0 3.374-1.596c.916-.522 1.82-.99 2.67-1.627a25.486 25.486 0 0 0 4.344-4.296 24.879 24.879 0 0 1 3.483-3.483l.25-.2a17.597 17.597 0 0 1 2.608-1.65 10.922 10.922 0 0 1 3.471-1.087c.637-.06 1.177-.485 1.177-1.17 0-.595-.534-1.245-1.177-1.178-4.247.443-7.87 3.095-10.667 6.177"/><path fill="#fff" d="M16.932 36.17c2.549-.88 15.644-5.765 22.98-16.05A1.173 1.173 0 0 0 38 18.76c-6.917 9.697-19.399 14.35-21.832 15.188l-.091.03a1.177 1.177 0 0 0 .813 2.203zm31.948 6.99c-1.626-.547-3.616-1.967-5.546-3.338-2.791-1.984-5.194-3.701-7.16-3.362-1.475.255-4.047 1.9-8.113 4.582-2.93 1.935-6.25 4.126-7.7 4.514a1.177 1.177 0 0 0 .607 2.264c1.814-.486 5.006-2.591 8.386-4.818 2.73-1.796 6.128-4.035 7.22-4.224 1.002-.17 3.441 1.566 5.401 2.962 2.063 1.468 4.205 2.991 6.165 3.64a1.171 1.171 0 1 0 .74-2.22"/><path fill="#fff" d="M45.937 48.912c-.94-.346-2.481-1.299-3.968-2.215-3.143-1.942-5.14-3.119-6.578-2.876-1.45.255-4.496 2.324-9.618 6.062l-1.54 1.116a1.174 1.174 0 1 0 1.352 1.918l1.578-1.135c2.033-1.493 7.445-5.443 8.617-5.643.728-.049 3.373 1.578 4.951 2.555 1.663 1.031 3.234 2.002 4.411 2.427a1.177 1.177 0 1 0 .795-2.215"/><path fill="#fff" d="M41.975 54.743q-.983-.649-1.85-1.274c-1.93-1.377-3.593-2.567-5.42-2.251-2.05.352-5.321 3.64-5.958 4.302a1.177 1.177 0 0 0 1.687 1.632c1.577-1.626 3.804-3.47 4.672-3.622.862-.146 2.154.776 3.653 1.844.576.413 1.232.88 1.936 1.335a1.171 1.171 0 1 0 1.274-1.966m10.34-24.235c-.983-.413-2.003-.85-2.828-1.53a4.49 4.49 0 0 1-1.517-2.894c-.243-1.487-2.506-.85-2.263.625.497 3.046 2.742 4.697 5.418 5.825.595.255 1.257.182 1.608-.418.292-.498.17-1.36-.424-1.608m-2.276 6.128a10.922 10.922 0 0 1-2.488-1.165c-1.699-1.013-3.264-2.475-4.023-4.344-.242-.595-.77-1.008-1.444-.82-.558.152-1.056.85-.82 1.445 1.397 3.452 4.613 6.056 8.15 7.148 1.457.449 2.063-1.82.625-2.264m-45-34.15h11.408V.666H3.207v13.228h1.82zm46.05-1.82v1.82h11.408v11.408h1.82V.665zM5.003 48.492H3.188v13.235h13.229v-1.82H5.003zm57.464 11.414H51.059v1.82h13.228V48.494h-1.82z"/></svg>